<svg xmlns="http://www.w3.org/2000/svg" viewBox="0 0 750 500"><g id="freepik--background-complete--inject-16"><path d="M692.37,304.22l-13.12.28-6.66.11c-2.23.05-4.47,0-6.7.06h-.44v-.45L665.39,293v-.5h.5l13.24.06c4.42,0,8.83.11,13.24.16h.28V293c0,1.9-.08,3.79-.13,5.66Zm0,0-.14-5.65c-.05-1.86-.11-3.7-.13-5.54l.27.28c-4.41.05-8.82.16-13.24.16l-13.24.06.5-.5,0,11.19-.45-.44c2.18,0,4.36,0,6.55.05L679,304Z" style="fill:#ebebeb"></path><path d="M677.6,318.33l-13.12.28-6.67.11c-2.22,0-4.46,0-6.69.06h-.44v-.45l0-11.19v-.5h.5l13.24.07c4.41,0,8.83.11,13.24.16h.28v.27c0,1.9-.08,3.79-.13,5.66Zm0,0-.14-5.65c-.05-1.86-.11-3.7-.13-5.54l.27.28c-4.41.05-8.83.16-13.24.16l-13.24.06.5-.5,0,11.19-.45-.44c2.18,0,4.36,0,6.55.05l6.57.12Z" style="fill:#ebebeb"></path><path d="M707.14,318.33l-13.12.28-6.66.11c-2.23,0-4.47,0-6.7.06h-.44v-.45l-.06-11.19v-.5h.5l13.24.07c4.42,0,8.83.11,13.24.16h.28v.27c0,1.9-.09,3.79-.13,5.66Zm0,0-.14-5.65c0-1.86-.11-3.7-.13-5.54l.27.28c-4.41.05-8.82.16-13.24.16l-13.24.06.5-.5,0,11.19-.45-.44c2.19,0,4.36,0,6.55.05l6.58.12Z" style="fill:#ebebeb"></path><path d="M314.79,171.07l-13.12.28-6.66.11c-2.23,0-4.47,0-6.7,0h-.44v-.45l-.06-11.19v-.5h.5l13.24.06c4.42,0,8.83.11,13.24.16h.28v.27c0,1.9-.09,3.78-.14,5.65Zm0,0-.14-5.66c0-1.86-.11-3.7-.13-5.53l.27.27c-4.41,0-8.82.16-13.24.16l-13.24.07.5-.5-.05,11.19-.45-.45c2.18,0,4.36,0,6.55.06l6.58.11Z" style="fill:#ebebeb"></path><path d="M300,185.18l-13.12.28-6.67.11c-2.22,0-4.46,0-6.69.05h-.44v-.45L273,174v-.5h.5l13.24.06c4.41,0,8.83.11,13.24.16h.28V174c0,1.9-.08,3.78-.13,5.65Zm0,0-.14-5.66c-.05-1.86-.11-3.7-.13-5.53l.27.27c-4.41.05-8.83.16-13.24.16l-13.24.07.5-.5L274,185.18l-.45-.45c2.18,0,4.36,0,6.55.06l6.57.11Z" style="fill:#ebebeb"></path><path d="M329.56,185.18l-13.12.28-6.66.11c-2.23,0-4.46,0-6.7.05h-.44v-.45L302.58,174v-.5h.5l13.24.06c4.42,0,8.83.11,13.24.16h.28V174c0,1.9-.09,3.78-.13,5.65Zm0,0-.14-5.66c0-1.86-.11-3.7-.13-5.53l.27.27c-4.41.05-8.82.16-13.24.16l-13.24.07.5-.5-.05,11.19-.45-.45c2.19,0,4.36,0,6.55.06l6.58.11Z" style="fill:#ebebeb"></path><path d="M98.88,245.11l-13.12.28-6.67.11c-2.22,0-4.46,0-6.69.05H72v-.45l0-11.19v-.5h.5l13.24.06c4.41,0,8.83.11,13.24.16h.28v.27c0,1.9-.08,3.78-.13,5.65Zm0,0-.14-5.66c0-1.86-.11-3.7-.13-5.53l.27.27c-4.41.05-8.83.16-13.24.16l-13.24.07.5-.5-.05,11.19-.45-.45c2.18,0,4.36,0,6.55.06l6.57.11Z" style="fill:#ebebeb"></path><path d="M537.86,171.06l-13.12.28-6.66.11c-2.23.05-4.47,0-6.7.05h-.44v-.45l-.06-11.19v-.5h.5l13.24.06c4.42,0,8.83.12,13.24.17h.28v.27c0,1.9-.08,3.79-.13,5.65Zm0,0-.14-5.65c-.05-1.87-.11-3.71-.13-5.54l.27.27c-4.41.05-8.82.16-13.24.17l-13.24.06.5-.5-.05,11.19-.45-.45c2.18,0,4.36,0,6.55.06l6.58.11Z" style="fill:#ebebeb"></path><path d="M690.84,62.38l-13.12.28-6.67.11c-2.22,0-4.46,0-6.69.06h-.44v-.45l0-11.19v-.5h.5l13.24.06c4.41,0,8.83.12,13.24.17h.28v.27c0,1.9-.08,3.79-.13,5.65Zm0,0-.14-5.65c-.05-1.87-.11-3.71-.13-5.54l.27.27c-4.41,0-8.83.16-13.24.17l-13.24.06.5-.5-.05,11.19-.45-.45c2.18,0,4.36,0,6.55.06l6.57.11Z" style="fill:#ebebeb"></path><path d="M705.61,76.49l-13.12.28-6.66.11c-2.23.05-4.47,0-6.7.05h-.44v-.45l-.06-11.19v-.5h.5l13.24.06c4.42,0,8.83.12,13.24.17h.28v.27c0,1.9-.09,3.79-.14,5.65Zm0,0-.14-5.65c0-1.87-.11-3.71-.13-5.54l.27.27c-4.41.05-8.82.16-13.24.17l-13.24.06.5-.5,0,11.19-.45-.45c2.18,0,4.36,0,6.55.06l6.58.11Z" style="fill:#ebebeb"></path><path d="M69.34,62.39l-13.13.28-6.66.11c-2.22,0-4.46,0-6.69.06h-.45v-.45l0-11.19v-.5h.51l13.24.07c4.41,0,8.82.11,13.24.16h.27v.27c0,1.9-.09,3.79-.13,5.66Zm0,0-.15-5.65c0-1.87-.11-3.71-.13-5.54l.28.27c-4.42.06-8.83.16-13.24.17l-13.24.06.5-.5L43.3,62.39,42.86,62c2.18,0,4.35,0,6.54,0l6.58.11Z" style="fill:#ebebeb"></path><path d="M61.29,145.65a2.65,2.65,0,0,1,2.78,0l.72.41c.24.13.49.26.74.37a2.65,2.65,0,0,1,1.55,2.31l.11,3.42,11.16-.34-.1-3.43a2.62,2.62,0,0,1,1.4-2.41,13.71,13.71,0,0,0,1.41-.87,2.66,2.66,0,0,1,2.77-.18l3,1.62,5.28-9.85-3-1.62a2.64,2.64,0,0,1-1.38-2.4,15.26,15.26,0,0,0-.06-1.66,2.67,2.67,0,0,1,1.23-2.5l2.92-1.81-5.89-9.49L83,119.05a2.63,2.63,0,0,1-2.77,0c-.24-.14-.47-.28-.72-.41l-.73-.37a2.66,2.66,0,0,1-1.56-2.31l-.1-3.43L66,112.86l.11,3.42a2.68,2.68,0,0,1-1.4,2.41,12.92,12.92,0,0,0-1.42.88,2.66,2.66,0,0,1-2.78.17l-3-1.61L52.18,128l3,1.62A2.65,2.65,0,0,1,56.58,132a15.45,15.45,0,0,0,.05,1.67,2.66,2.66,0,0,1-1.23,2.5L52.49,138l5.89,9.49ZM64.09,128a9.14,9.14,0,1,1,3.74,12.38A9.14,9.14,0,0,1,64.09,128Z" style="fill:#ebebeb"></path><path d="M594.87,355.89a1.85,1.85,0,0,1,.91,1.72c0,.2,0,.39,0,.58s0,.39,0,.58a1.85,1.85,0,0,1-.91,1.72l-2.08,1.2,3.91,6.78,2.08-1.2a1.85,1.85,0,0,1,2,.07,11.41,11.41,0,0,0,1,.58,1.85,1.85,0,0,1,1,1.65V372h7.83v-2.4a1.86,1.86,0,0,1,1-1.65,9.12,9.12,0,0,0,1-.58,1.85,1.85,0,0,1,2-.07l2.08,1.2,3.91-6.78-2.09-1.21a1.84,1.84,0,0,1-.9-1.71c0-.19,0-.39,0-.58s0-.38,0-.58a1.85,1.85,0,0,1,.91-1.72l2.08-1.2-3.91-6.78-2.07,1.2a1.85,1.85,0,0,1-2-.07c-.33-.21-.67-.4-1-.58a1.86,1.86,0,0,1-1-1.65v-2.4h-7.83v2.4a1.85,1.85,0,0,1-1,1.65,11,11,0,0,0-1,.58,1.85,1.85,0,0,1-2,.07l-2.08-1.2-3.91,6.78Zm11.81-4.11a6.41,6.41,0,1,1-6.41,6.41A6.41,6.41,0,0,1,606.68,351.78Z" style="fill:#ebebeb"></path><path d="M629.63,308.5A30.47,30.47,0,1,0,660.1,278,30.48,30.48,0,0,0,629.63,308.5Zm16.24,0a14.24,14.24,0,1,1,14.23,14.22A14.24,14.24,0,0,1,645.87,308.5Z" style="fill:#ebebeb"></path><polygon points="654.24 279.29 665.96 279.29 665.31 270.99 654.89 270.99 654.24 279.29" style="fill:#ebebeb"></polygon><polygon points="676.55 283.24 684.83 291.52 690.24 285.2 682.87 277.83 676.55 283.24" style="fill:#ebebeb"></polygon><polygon points="689.53 301.8 689.53 313.52 697.82 312.87 697.82 302.45 689.53 301.8" style="fill:#ebebeb"></polygon><polygon points="685.58 324.1 677.29 332.39 683.62 337.8 690.99 330.43 685.58 324.1" style="fill:#ebebeb"></polygon><polygon points="667.01 337.08 655.3 337.08 655.95 345.38 666.37 345.38 667.01 337.08" style="fill:#ebebeb"></polygon><polygon points="644.71 333.13 636.42 324.85 631.02 331.17 638.39 338.54 644.71 333.13" style="fill:#ebebeb"></polygon><polygon points="631.73 314.57 631.73 302.85 623.44 303.5 623.44 313.92 631.73 314.57" style="fill:#ebebeb"></polygon><polygon points="635.68 292.27 643.97 283.98 637.64 278.57 630.27 285.94 635.68 292.27" style="fill:#ebebeb"></polygon><path d="M639.81,111c-2.58.58-4.58-1-4.58-3.42a3.5,3.5,0,0,1,2.33-3.41c8.08-2.5,9.25-5.08,9.25-10.74,0-1.67-.17-4.41-.17-6.16,0-6.5,3.08-9.58,8.66-11.41-5.5-1.75-8.66-4.92-8.66-11.41,0-1.75.17-4.5.17-6.16,0-5.66-1.17-8.25-9.25-10.74a3.52,3.52,0,0,1-2.33-3.42c0-2.41,2-4,4.58-3.41,12.91,2.83,16.32,8,16.32,16.07,0,1.25-.17,4.58-.17,6,0,6.17,2.17,8.83,7.83,9.08,2.67.17,4.25,1.75,4.25,4s-1.58,3.83-4.25,4c-5.66.17-7.83,2.92-7.83,9,0,1.41.17,4.74.17,6C656.13,103,652.72,108.13,639.81,111Z" style="fill:#ebebeb"></path><path d="M623.66,40.68c2.58-.59,4.57,1,4.57,3.41a3.47,3.47,0,0,1-2.41,3.42c-8,2.49-9.16,5.08-9.16,10.74,0,1.66.17,4.41.17,6.16,0,6.49-3.08,9.58-8.66,11.41,5.49,1.75,8.66,4.91,8.66,11.41,0,1.75-.17,4.49-.17,6.16,0,5.66,1.17,8.24,9.16,10.74a3.46,3.46,0,0,1,2.41,3.41c0,2.42-2,4-4.57,3.42-12.91-2.83-16.33-8-16.33-16.16,0-1.25.17-4.58.17-6,0-6.08-2.25-8.83-7.91-9-2.58-.16-4.16-1.74-4.16-4s1.58-3.83,4.16-4c5.66-.25,7.91-2.91,7.91-9.08,0-1.41-.17-4.74-.17-6C607.33,48.67,610.75,43.51,623.66,40.68Z" style="fill:#ebebeb"></path><path d="M95.29,231.34a3.39,3.39,0,0,1-2.36,5.81,3.61,3.61,0,0,1-2.48-1L75.32,220.84a.42.42,0,0,1-.27-.33,1.34,1.34,0,0,0-.17-.11,1.88,1.88,0,0,1-.16-.43.27.27,0,0,1-.16-.21c0-.11,0-.27-.11-.33s-.11-.21-.11-.27v-.37c0-.11,0-.16,0-.32s0-.22,0-.27v-.38c0-.11.11-.16.11-.22s.06-.26.11-.43,0,0,0-.1a5.14,5.14,0,0,1,.27-.49.11.11,0,0,1,.11-.11.93.93,0,0,1,.33-.37l15.13-15.35a3.49,3.49,0,0,1,4.84,0,3.4,3.4,0,0,1,0,4.84L82.53,218.47Z" style="fill:#ebebeb"></path><path d="M109,233.06l13.2-31.4a3,3,0,0,1,3.93-1.56,2.91,2.91,0,0,1,1.51,3.82l-13.2,31.46a3,3,0,0,1-2.75,1.77,2.55,2.55,0,0,1-1.07-.21A2.92,2.92,0,0,1,109,233.06Z" style="fill:#ebebeb"></path><path d="M153.7,220.4s0,.06,0,.06a3.4,3.4,0,0,1-.38.38l-15.13,15.35a3.51,3.51,0,0,1-2.43,1,3.47,3.47,0,0,1-2.42-1,3.41,3.41,0,0,1,0-4.85l12.76-12.87-12.76-12.88a3.4,3.4,0,0,1,0-4.84,3.5,3.5,0,0,1,4.85,0l15.13,15.35a2.23,2.23,0,0,1,.38.37s0,.11,0,.11a4.24,4.24,0,0,1,.27.49c0,.05.06.05.06.1a2.62,2.62,0,0,0,.15.49c0,.05.06.05.06.16v.38c0,.05.06.21.06.27s-.06.21-.06.26v.43c0,.06-.06.06-.06.11-.1.22-.1.38-.15.49s-.06.05-.06.16S153.81,220.19,153.7,220.4Z" style="fill:#ebebeb"></path></g><g id="freepik--Floor--inject-16"><polygon points="50.72 447.25 131.79 447.01 212.86 446.92 375 446.75 537.14 446.92 618.21 447.01 699.28 447.25 618.21 447.5 537.14 447.59 375 447.75 212.86 447.58 131.79 447.5 50.72 447.25" style="fill:#263238"></polygon></g><g id="freepik--Device--inject-16"><rect x="71.48" y="425.14" width="607.03" height="22.11" style="fill:#c7c7c7"></rect><rect x="134.21" y="103" width="481.59" height="322.15" style="fill:#dbdbdb"></rect><rect x="137.71" y="106.93" width="474.59" height="314.29" style="fill:#37474f"></rect><rect x="158.72" y="127.13" width="432.56" height="273.88" style="fill:#263238"></rect><rect x="158.72" y="127.13" width="432.56" height="10.54" style="fill:#8089FF"></rect><path d="M168.64,132.4a2,2,0,1,1-2-2A2,2,0,0,1,168.64,132.4Z" style="fill:#c7c7c7"></path><path d="M176.79,132.4a2,2,0,1,1-2-2A2,2,0,0,1,176.79,132.4Z" style="fill:#fff"></path><path d="M184.93,132.4a2,2,0,1,1-2-2A2,2,0,0,1,184.93,132.4Z" style="fill:#455a64"></path><rect x="186.36" y="184.49" width="9.94" height="1.95" style="fill:#ebebeb"></rect><rect x="208.03" y="184.49" width="220.3" height="1.95" style="fill:#ebebeb"></rect><rect x="434.44" y="184.49" width="18.88" height="1.95" style="fill:#8089FF"></rect><rect x="464.65" y="230.45" width="63.72" height="1.94" style="fill:#ebebeb"></rect><rect x="457.42" y="184.49" width="93.54" height="1.95" style="fill:#a6a6a6"></rect><rect x="186.36" y="193.68" width="9.94" height="1.95" style="fill:#ebebeb"></rect><rect x="217.71" y="193.68" width="74.82" height="1.95" style="fill:#a6a6a6"></rect><rect x="431.86" y="230.45" width="28.3" height="1.94" style="fill:#a6a6a6"></rect><rect x="208.03" y="221.26" width="71.46" height="1.95" style="fill:#a6a6a6"></rect><rect x="217.71" y="202.88" width="50.13" height="1.95" style="fill:#8089FF"></rect><rect x="447.06" y="212.07" width="94.97" height="1.94" style="fill:#a6a6a6"></rect><rect x="333.36" y="257.18" width="94.97" height="1.94" style="fill:#a6a6a6"></rect><rect x="273.41" y="202.88" width="186.36" height="1.95" style="fill:#a6a6a6"></rect><rect x="208.03" y="230.45" width="217.37" height="1.94" style="fill:#8089FF"></rect><rect x="297.23" y="193.68" width="153.98" height="1.95" style="fill:#ebebeb"></rect><rect x="467.73" y="202.88" width="32.24" height="1.95" style="fill:#ebebeb"></rect><rect x="186.36" y="202.88" width="9.94" height="1.95" style="fill:#ebebeb"></rect><rect x="186.36" y="212.07" width="9.94" height="1.94" style="fill:#a6a6a6"></rect><rect x="208.03" y="212.07" width="58.74" height="1.94" style="fill:#ebebeb"></rect><rect x="217.71" y="239.64" width="58.74" height="1.95" style="fill:#ebebeb"></rect><rect x="433.54" y="248.83" width="82" height="1.95" style="fill:#8089FF"></rect><rect x="270.83" y="248.83" width="157.57" height="1.95" style="fill:#ebebeb"></rect><rect x="217.71" y="248.83" width="44.15" height="1.95" style="fill:#a6a6a6"></rect><rect x="283.53" y="221.26" width="169.78" height="1.95" style="fill:#ebebeb"></rect><rect x="457.42" y="221.26" width="101.3" height="1.95" style="fill:#8089FF"></rect><rect x="272.73" y="212.07" width="169.71" height="1.94" style="fill:#8089FF"></rect><rect x="186.36" y="221.26" width="9.94" height="1.95" style="fill:#ebebeb"></rect><rect x="186.36" y="230.45" width="9.94" height="1.94" style="fill:#ebebeb"></rect><rect x="186.36" y="239.64" width="9.94" height="1.95" style="fill:#a6a6a6"></rect><rect x="186.36" y="248.83" width="9.94" height="1.95" style="fill:#ebebeb"></rect><rect x="186.36" y="257.18" width="9.94" height="1.94" style="fill:#ebebeb"></rect><rect x="208.03" y="257.18" width="116.53" height="1.94" style="fill:#ebebeb"></rect><rect x="186.36" y="266.37" width="9.94" height="1.95" style="fill:#ebebeb"></rect><rect x="217.71" y="266.37" width="74.82" height="1.95" style="fill:#a6a6a6"></rect><rect x="208.03" y="293.94" width="71.46" height="1.94" style="fill:#a6a6a6"></rect><rect x="217.71" y="275.56" width="50.13" height="1.95" style="fill:#8089FF"></rect><rect x="332.52" y="312.33" width="50.13" height="1.95" style="fill:#8089FF"></rect><rect x="217.71" y="330.71" width="50.13" height="1.95" style="fill:#8089FF"></rect><rect x="273.41" y="275.56" width="186.36" height="1.95" style="fill:#a6a6a6"></rect><rect x="208.03" y="303.13" width="217.37" height="1.95" style="fill:#8089FF"></rect><rect x="297.23" y="266.37" width="153.98" height="1.95" style="fill:#ebebeb"></rect><rect x="451.64" y="284.75" width="32.18" height="1.95" style="fill:#ebebeb"></rect><rect x="186.36" y="275.56" width="9.94" height="1.95" style="fill:#ebebeb"></rect><rect x="186.36" y="284.75" width="9.94" height="1.95" style="fill:#a6a6a6"></rect><rect x="208.03" y="284.75" width="58.74" height="1.95" style="fill:#ebebeb"></rect><rect x="283.53" y="293.94" width="169.78" height="1.94" style="fill:#ebebeb"></rect><rect x="272.73" y="284.75" width="169.71" height="1.95" style="fill:#8089FF"></rect><rect x="186.36" y="293.94" width="9.94" height="1.94" style="fill:#ebebeb"></rect><rect x="186.36" y="312.33" width="9.94" height="1.95" style="fill:#ebebeb"></rect><rect x="208.03" y="312.33" width="116.53" height="1.95" style="fill:#ebebeb"></rect><rect x="186.36" y="321.52" width="9.94" height="1.95" style="fill:#ebebeb"></rect><rect x="217.71" y="321.52" width="74.82" height="1.95" style="fill:#a6a6a6"></rect><rect x="208.03" y="349.09" width="71.46" height="1.95" style="fill:#a6a6a6"></rect><rect x="273.41" y="330.71" width="186.36" height="1.95" style="fill:#a6a6a6"></rect><rect x="451.64" y="339.9" width="32.18" height="1.95" style="fill:#ebebeb"></rect><rect x="186.36" y="330.71" width="9.94" height="1.95" style="fill:#ebebeb"></rect><rect x="186.36" y="339.9" width="9.94" height="1.95" style="fill:#a6a6a6"></rect><rect x="208.03" y="339.9" width="58.74" height="1.95" style="fill:#ebebeb"></rect><rect x="283.53" y="349.09" width="169.78" height="1.95" style="fill:#ebebeb"></rect><rect x="272.73" y="339.9" width="169.71" height="1.95" style="fill:#8089FF"></rect><rect x="186.36" y="349.09" width="9.94" height="1.95" style="fill:#ebebeb"></rect><path d="M191.18,167a.67.67,0,0,1,0,1,.69.69,0,0,1-.47.2.71.71,0,0,1-.49-.2l-3-3.05a.07.07,0,0,1-.06-.06l0,0a.47.47,0,0,1,0-.09.05.05,0,0,1,0,0s0-.06,0-.07,0,0,0,0v-.08s0,0,0-.06v-.13s0,0,0,0,0-.06,0-.09,0,0,0,0,0-.07.05-.1a0,0,0,0,1,0,0,.15.15,0,0,1,.07-.07l3-3a.69.69,0,0,1,1,0,.67.67,0,0,1,0,1l-2.54,2.56Z" style="fill:#8089FF"></path><path d="M193.91,167.35l2.62-6.24a.59.59,0,0,1,.78-.31.57.57,0,0,1,.3.76L195,167.81a.6.6,0,0,1-.55.36.41.41,0,0,1-.21,0A.57.57,0,0,1,193.91,167.35Z" style="fill:#8089FF"></path><path d="M202.8,164.84h0l-.08.07-3,3.05a.68.68,0,0,1-1,0,.67.67,0,0,1,0-1l2.54-2.56-2.54-2.56a.67.67,0,0,1,0-1,.69.69,0,0,1,1,0l3,3,.08.07s0,0,0,0,0,.07,0,.1,0,0,0,0a.54.54,0,0,0,0,.1s0,0,0,0v.08l0,0s0,0,0,.05v.09s0,0,0,0a.93.93,0,0,0,0,.1s0,0,0,0A.89.89,0,0,0,202.8,164.84Z" style="fill:#8089FF"></path></g><g id="freepik--Windows--inject-16"><rect x="537.66" y="117.31" width="103.1" height="65.77" style="fill:#fff"></rect><path d="M641.41,183.73H537V116.66h104.4Zm-103.1-1.3H640.1V118H538.31Z" style="fill:#ebebeb"></path><rect x="537.66" y="117.31" width="103.1" height="12.44" style="fill:#8089FF"></rect><path d="M641.41,130.4H537V116.66h104.4Zm-103.1-1.3H640.1V118H538.31Z" style="fill:#ebebeb"></path><path d="M555.45,154.34a12.73,12.73,0,0,1,12.72-12.47,13,13,0,0,1,8,2.7,2,2,0,0,1-2.43,3.16,8.61,8.61,0,0,0-5.57-1.91,9.2,9.2,0,0,0-6.24,2.49,8.57,8.57,0,0,0-2.53,6,8.43,8.43,0,0,0,2.53,6,9.2,9.2,0,0,0,6.24,2.49,8.74,8.74,0,0,0,5.57-1.9,2.1,2.1,0,0,1,2.77.38,2,2,0,0,1-.34,2.77,13,13,0,0,1-8,2.7A12.68,12.68,0,0,1,555.45,154.34Z" style="fill:#ebebeb"></path><path d="M582.47,160.78a1.81,1.81,0,0,1,2.53-.24,11.31,11.31,0,0,0,6.62,2.67,7.49,7.49,0,0,0,4.33-1.28,3.13,3.13,0,0,0,1.48-2.5,1.92,1.92,0,0,0-.31-1.1,3.1,3.1,0,0,0-1-1,13.76,13.76,0,0,0-4.74-1.63h-.07a18.86,18.86,0,0,1-4.47-1.35,7.42,7.42,0,0,1-3.22-2.71,5.31,5.31,0,0,1-.8-2.84,6.41,6.41,0,0,1,2.77-5,10.26,10.26,0,0,1,6-1.84c3.32,0,5.78,1.63,7.55,2.77a1.79,1.79,0,0,1,.48,2.46,1.75,1.75,0,0,1-2.46.52c-1.76-1.18-3.46-2.22-5.57-2.22a6.62,6.62,0,0,0-3.88,1.18,2.75,2.75,0,0,0-1.32,2.18,1.68,1.68,0,0,0,.24,1,3.56,3.56,0,0,0,.94.91,12.08,12.08,0,0,0,4.33,1.52h.07a21.12,21.12,0,0,1,4.78,1.45,8.17,8.17,0,0,1,3.46,2.88,5.6,5.6,0,0,1,.83,2.94,6.67,6.67,0,0,1-3,5.37,10.77,10.77,0,0,1-6.4,2,14.93,14.93,0,0,1-8.87-3.47A1.84,1.84,0,0,1,582.47,160.78Z" style="fill:#ebebeb"></path><path d="M605.23,160.78a1.81,1.81,0,0,1,2.53-.24,11.28,11.28,0,0,0,6.61,2.67,7.49,7.49,0,0,0,4.33-1.28,3.12,3.12,0,0,0,1.49-2.5,1.92,1.92,0,0,0-.31-1.1,3.19,3.19,0,0,0-1-1,13.76,13.76,0,0,0-4.74-1.63H614a18.72,18.72,0,0,1-4.47-1.35,7.42,7.42,0,0,1-3.22-2.71,5.31,5.31,0,0,1-.8-2.84,6.41,6.41,0,0,1,2.77-5,10.23,10.23,0,0,1,6-1.84c3.33,0,5.79,1.63,7.56,2.77a1.8,1.8,0,0,1,.48,2.46,1.75,1.75,0,0,1-2.46.52c-1.77-1.18-3.46-2.22-5.58-2.22a6.65,6.65,0,0,0-3.88,1.18,2.76,2.76,0,0,0-1.31,2.18,1.68,1.68,0,0,0,.24,1,3.41,3.41,0,0,0,.94.91,12,12,0,0,0,4.33,1.52h.06a21.06,21.06,0,0,1,4.79,1.45,8.17,8.17,0,0,1,3.46,2.88,5.6,5.6,0,0,1,.83,2.94,6.7,6.7,0,0,1-3,5.37,10.83,10.83,0,0,1-6.41,2,15,15,0,0,1-8.87-3.47A1.84,1.84,0,0,1,605.23,160.78Z" style="fill:#ebebeb"></path><path d="M547.06,123.62a2,2,0,1,1-2-2A2,2,0,0,1,547.06,123.62Z" style="fill:#c7c7c7"></path><path d="M555.21,123.62a2,2,0,1,1-2-2A2,2,0,0,1,555.21,123.62Z" style="fill:#fff"></path><path d="M563.35,123.62a2,2,0,1,1-2-2A2,2,0,0,1,563.35,123.62Z" style="fill:#455a64"></path><rect x="483.06" y="71.42" width="70.23" height="26" style="fill:#455a64"></rect><path d="M493.2,89.81V78.28a1.05,1.05,0,0,1,1.07-1.07,1.07,1.07,0,0,1,1.1,1.07V83h5.06V78.28a1.05,1.05,0,0,1,1.08-1.07,1.07,1.07,0,0,1,1.09,1.07V89.81a1.08,1.08,0,0,1-1.09,1.08,1.06,1.06,0,0,1-1.08-1.08V85.12h-5.06v4.69a1.08,1.08,0,0,1-1.1,1.08A1.06,1.06,0,0,1,493.2,89.81Z" style="fill:#fff"></path><path d="M515.42,79.38h-3.1V89.81a1.08,1.08,0,1,1-2.15,0V79.38h-3.09a1.09,1.09,0,0,1-1.08-1.1,1.05,1.05,0,0,1,1.08-1.07h8.34a1.07,1.07,0,0,1,1.08,1.07A1.11,1.11,0,0,1,515.42,79.38Z" style="fill:#fff"></path><path d="M531.49,78.28V89.81a1.1,1.1,0,0,1-1.09,1.08,1.08,1.08,0,0,1-1.08-1.08V81.58l-2.81,3.91a1.06,1.06,0,0,1-.88.45h0a1.09,1.09,0,0,1-.9-.45l-2.8-3.91v8.23a1.09,1.09,0,0,1-2.17,0V78.28a1.08,1.08,0,0,1,1.08-1.07h.06a1.07,1.07,0,0,1,.86.44l3.89,5.4,3.89-5.4a1.06,1.06,0,0,1,.88-.44h0A1.11,1.11,0,0,1,531.49,78.28Z" style="fill:#fff"></path><path d="M536.22,89.81V78.28a1.07,1.07,0,0,1,1.08-1.07,1.08,1.08,0,0,1,1.09,1.07V88.72h5.3a1.09,1.09,0,0,1,0,2.17H537.3A1.08,1.08,0,0,1,536.22,89.81Z" style="fill:#fff"></path></g><g id="freepik--Character--inject-16"><path d="M387.46,425.3c-2.83,1.09-84.89,2.58-88.1.75-.35-.21-.26-3.83-1.46-13.2-.06-.45-1.94-2.19-4.86-4.64-11-9.2-36.76-28.59-36.76-28.59l41-35.58,39.69,39,10.32,10.14s33.53,18.11,36.85,20.5S390.29,424.22,387.46,425.3Z" style="fill: rgb(255, 196, 192);"></path><path d="M387.46,425.3c-2.83,1.09-84.89,2.58-88.1.75-.35-.21-.25-3.83-1.47-13.2-.05-.45-1.92-2.18-4.85-4.64-3.82-3.2-5.63-4.66-11.31-9.08L333.8,380l3.12,3.06,10.32,10.15s33.53,18.1,36.85,20.49S390.29,424.22,387.46,425.3Z" style="fill:#ebebeb"></path><path d="M393.11,426.43c-2.85,1-90.28,1.95-93.43,0-.74-.46-1.42-5.54-2-12.5-.07-.87-8.93-7.95-10.14-9.26l53.58-18,6.77,6.36s39.43,18.35,42.65,20.85S396,425.44,393.11,426.43Z" style="fill:#8089FF"></path><path d="M391.9,423.17c-13.74-.18-74.67.41-88.26,1.28-.11,0-.11.08,0,.08,13.61.48,74.54-.56,88.26-1.13C392.19,423.38,392.19,423.18,391.9,423.17Z" style="fill:#263238"></path><path d="M352.3,393.59c-5.42-.94-12,0-16.1,3.86-.16.15.06.37.23.32a76,76,0,0,1,15.85-3.5A.34.34,0,0,0,352.3,393.59Z" style="fill:#263238"></path><path d="M356.23,395.9c-5.42-.95-12,0-16.1,3.86-.16.15.05.37.23.31a75.94,75.94,0,0,1,15.85-3.49A.34.34,0,0,0,356.23,395.9Z" style="fill:#263238"></path><path d="M360.15,398.2c-5.41-.94-12,0-16.1,3.86-.15.15.06.37.24.32a76,76,0,0,1,15.85-3.5A.34.34,0,0,0,360.15,398.2Z" style="fill:#263238"></path><path d="M364.08,400.51c-5.41-.95-12,0-16.1,3.86-.16.15.06.37.24.31a75.8,75.8,0,0,1,15.85-3.49A.34.34,0,0,0,364.08,400.51Z" style="fill:#263238"></path><path d="M362.13,381c-2.15-2.9-6.09-1.54-8.33.38a28.84,28.84,0,0,0-8.18,12.48.14.14,0,0,0,.13.19.68.68,0,0,0,.86.67c4.44-1.71,9.4-3,13.19-6C362,386.94,364.17,383.72,362.13,381Zm-9.31,9.75c-2.17.89-4.36,1.67-6.5,2.65,1.61-2.43,3.1-4.92,4.94-7.19a31,31,0,0,1,2.83-3.12c1.59-1.49,7.92-4.67,7,1.27C360.64,387.61,355.4,389.67,352.82,390.73Z" style="fill:#263238"></path><path d="M331.87,392.59c4.48,1.84,9.6,1.69,14.34,2.09a.68.68,0,0,0,.64-.88.15.15,0,0,0,.07-.22,28.76,28.76,0,0,0-11.32-9.71c-2.68-1.23-6.85-1.44-8.11,1.94C326.29,389,329.26,391.51,331.87,392.59Zm-2.48-3.83c-2.5-5.46,4.46-4.16,6.4-3.17a30.16,30.16,0,0,1,3.59,2.22,86.7,86.7,0,0,1,6.74,5.52c-2.32-.34-4.65-.48-7-.73C336.37,392.29,330.76,391.77,329.39,388.76Z" style="fill:#263238"></path><path d="M337.48,380.87l-50.62,26.24s-52.74-47.74-57.57-48.1S153.51,406.8,117.79,407c-37,.16-38.87-38.6-38.87-38.6l54-12.4c38.9-19.17,79.42-53.6,105.93-50.39C267.6,309.05,337.48,380.87,337.48,380.87Z" style="fill:#455a64"></path><path d="M325.12,374.19c-8.55,4.23-6.15,2.9-14.65,7.22-4.16,2.11-25.09,12.67-28.65,15.28-.07.06,0,.2.09.17,4.18-1.4,24.88-12.41,29-14.6,8.42-4.47,6-3.27,14.33-7.83A.13.13,0,1,0,325.12,374.19Z" style="fill:#263238"></path><path d="M277.9,395c-9.9-8.72-42.33-37.13-43.64-38.19a17.64,17.64,0,0,0-3.38-2.53,3.58,3.58,0,0,0-3.12.25c-1.5.7-3,1.47-4.46,2.19L214.53,361c-11.34,5.53-22.62,11.21-34.05,16.57-11,5.14-18.84,10-30.32,14A171.79,171.79,0,0,1,115,399.93q-2.22.27-4.44.48a.09.09,0,0,0,0,.17,142.12,142.12,0,0,0,34.66-6.45c11.37-3.49,19.08-8,29.89-13,11.19-5.15,22.22-10.66,33.25-16.15,5.83-2.89,11.64-5.82,17.48-8.68,1.33-.64,3.21-2.05,4.73-1.36a8.82,8.82,0,0,1,1.74,1.29l2,1.62c2.5,2.08,42.25,36.32,43.55,37.3C277.86,395.23,278,395.1,277.9,395Z" style="fill:#263238"></path><path d="M78.82,368.35s-6,35,11.45,48.75S236,429.19,255.43,422.9s20.07-37.68-1.2-44.95C234,371,148,367.67,145.82,366.82c-.53-.21,7.64-5.11,7.6-5.41l-19.58-6Z" style="fill:#455a64"></path><path d="M105.38,367.46c0-.15-.25-.1-.25,0a17.31,17.31,0,0,1-4,11.12c-3,3.44-7.37,5.37-11.35,7.38-.38.19-.09.79.3.67a34.67,34.67,0,0,0,7-3,17,17,0,0,0,5.29-4.4A15.1,15.1,0,0,0,105.38,367.46Z" style="fill:#263238"></path><path d="M144.42,363.13c-.89-1.14-1.86-2.22-2.79-3.32-2.19-2.61-4.39-5.23-6.69-7.74-.21-.24-.64.1-.44.36,1.55,2,3.18,4,4.79,5.95l2.49,3a19.37,19.37,0,0,1,2.33,3c.6,1.12-.19,2.08-1.36,2.2a4,4,0,0,1-2.79-1,37.38,37.38,0,0,1-4.75-5.07c-.92-1-1.85-2.08-2.78-3.1s-2.06-2.13-3.06-3.22c-.06-.07-.18,0-.13.11.87,1.19,1.67,2.43,2.54,3.63s1.76,2.37,2.65,3.54,1.73,2.19,2.64,3.26a11.06,11.06,0,0,0,2.67,2.39c1.66,1,4.55,1.19,5.44-1A3,3,0,0,0,144.42,363.13Z" style="fill:#263238"></path><path d="M252.77,423c-6.69.12-13.39.51-20.09.65s-13.29.18-19.93.12q-20-.18-40-1.55c-13.46-.93-28-2.27-41.33-4.13-6.4-.88-12.88-1.62-19.2-3a30.33,30.33,0,0,1-15.15-7.74c-8.66-8.39-12-20.74-13.4-32.53-.19-1.58-.34-3.17-.47-4.76,0-.1-.17-.1-.16,0,.78,12.09,2.66,24.7,10.27,34.42a30.14,30.14,0,0,0,12.39,9.62c6,2.4,12.63,3,19,3.82,13.42,1.82,28,3.23,41.48,4.27s27.2,1.71,40.82,1.91,27.26,0,40.86-.66c1.66-.08,3.32-.18,5-.32A.08.08,0,0,0,252.77,423Z" style="fill:#263238"></path><path d="M210.54,371.57c-4.21-.62-8.42-1.22-12.66-1.67s-8.57-.83-12.86-1.19c-8.48-.72-17-1.36-25.49-1.76-4.83-.23-9.66-.25-14.49-.19-.16,0-.15.22,0,.24,8.5.77,17,1.3,25.53,1.87s17,1.31,25.47,2.12c4.81.46,9.62.81,14.43,1.2A.31.31,0,0,0,210.54,371.57Z" style="fill:#263238"></path><path d="M154.42,361a65.79,65.79,0,0,0-9.76,5.22,77.7,77.7,0,0,0-9,6.32c-.08.07,0,.17.1.13,3.31-1.53,6.5-3.45,9.65-5.28a93.2,93.2,0,0,0,9.25-5.94C154.83,361.28,154.7,360.87,154.42,361Z" style="fill:#263238"></path><path d="M138.35,326,130,324.64a25.91,25.91,0,0,1,.16-15.76c.37-1.17-3.74,5.2-4.4,15.08-8.82-1.41-20.81-3.33-31.26-5.11.55-4.11.87-7.94.87-7.94a45.66,45.66,0,0,1-3.15,7.57l-4.17-.72c1.47-6.27,2.43-17.48,2.43-17.48a56.5,56.5,0,0,1-8.37,16.43c-6.62-1.2-11-2.1-10.62-2.37,12.13-9.63,6-17.6,10.73-27.19,5.66-11.49,16.46-11.49,17.83-20.65,1.13-7.45,2.69-21.06,12.58-22.2a18.33,18.33,0,0,1,20.25-.14c13.74,8.39,3.68,30.15,3.83,35,.21,6.9,2.94,9.82,3.9,17.82s-3.43,12.55-4.79,17.67S140,326.26,138.35,326Z" style="fill:#263238"></path><path d="M71.49,312.65a26.13,26.13,0,0,0,4.41-5.89c1.18-2.12,1.28-4.49,1.26-7a73.64,73.64,0,0,1,.13-7.55,19.67,19.67,0,0,1,2.14-7.49,17.16,17.16,0,0,1,5.2-5.83,45.35,45.35,0,0,1,6.58-3.78,28.33,28.33,0,0,0,6.16-3.9,13.48,13.48,0,0,0,3.87-6.14A12.63,12.63,0,0,1,98,271.89a25.29,25.29,0,0,1-6.09,4.55,56.3,56.3,0,0,0-6.19,3.94,16.33,16.33,0,0,0-4.56,5.31,19.27,19.27,0,0,0-2,6.77c-.3,2.4-.3,4.86-.43,7.38a25.19,25.19,0,0,1-.46,3.82,11.11,11.11,0,0,1-1.53,3.61A21.48,21.48,0,0,1,71.49,312.65Z" style="fill:#263238"></path><path d="M139.68,254.2a37.83,37.83,0,0,1,.38,9.21c-.18,3.07-.51,6.13-.87,9.17l-.5,4.54a22.58,22.58,0,0,0-.12,4.41,24.56,24.56,0,0,0,2.63,8.4,36.1,36.1,0,0,1,1.69,4.4,22.33,22.33,0,0,1,.83,4.73,32.45,32.45,0,0,1-.21,4.74,19.54,19.54,0,0,1-1.11,4.63c-.56,1.5-1.26,2.88-1.89,4.24a23.83,23.83,0,0,0-1.5,4.22,9.38,9.38,0,0,0,2.23,8.31,9.56,9.56,0,0,1-3.16-8.49,22.66,22.66,0,0,1,1.24-4.53c.54-1.47,1.18-2.84,1.61-4.25a24.36,24.36,0,0,0,.91-8.75,21.67,21.67,0,0,0-.82-4.29,33.39,33.39,0,0,0-1.64-4.15,43.17,43.17,0,0,1-1.75-4.34,19.45,19.45,0,0,1-.94-4.73,24.83,24.83,0,0,1,.26-4.75c.2-1.53.45-3.05.7-4.56.49-3,1-6,1.43-9.05A44.13,44.13,0,0,0,139.68,254.2Z" style="fill:#263238"></path><path d="M115.47,300.82c4.93,13.41,27.25,48.37,37.59,53.5,7.65,3.78,30.49,8.42,33.43,7.69,4.24-1,13.73-29.84,9.85-30.12-18.66-1.35-30.54-3.77-34.94-5.51-3.71-1.47-19.17-15.75-39.23-33.19C115.18,287.12,112.51,292.8,115.47,300.82Z" style="fill: rgb(255, 196, 192);"></path><path d="M126.93,330.12l12.81-24.41s-10.37-9.19-16.83-13.47c-8.55-5.65-12.66-3.8-9.33,8.32C115.8,308.66,126.93,330.12,126.93,330.12Z" style="fill:#8089FF"></path><path d="M128,295.94h-.11a1.85,1.85,0,0,1-1.81-1.47C126.7,295,127.34,295.43,128,295.94Zm-.11,28.64a1.85,1.85,0,0,0,0,3.7h0l1.51-2.89A1.84,1.84,0,0,0,127.88,324.58Zm-10.24-16a1.72,1.72,0,0,0-.94.27c.48,1.09,1,2.21,1.49,3.34a1.83,1.83,0,0,0,1.3-1.76A1.85,1.85,0,0,0,117.64,308.56Zm20.48,0a1.85,1.85,0,0,0-1.85,1.85,1.82,1.82,0,0,0,.4,1.14l1.57-3Z" style="fill:#fff"></path><path d="M125.92,326.43c1.62-3.68,3.28-7.33,5.12-10.91q1.36-2.68,2.82-5.32c1-1.76,2.12-3.42,3.06-5.19.05-.09.2,0,.14.09-1,1.71-1.83,3.59-2.77,5.35s-1.87,3.56-2.79,5.34c-1.84,3.56-3.68,7.13-5.44,10.73C126,326.62,125.87,326.53,125.92,326.43Z" style="fill:#263238"></path><path d="M137.73,309.55l-10.8,20.58s-11.12-21.47-13.36-29.57c-1-3.75-1.34-6.51-1-8.38Z" style="opacity:0.1"></path><path d="M186.49,362A106.15,106.15,0,0,0,199,367.83c3.43,1.17,13.39,4.27,15.05.62,1.14-2.49-4.5-5-8.46-6.87-2.08-1-4.59-3.32-3.9-4.66,1.2-2.33,6.56.32,10.05,2.57,6.76,4.36,15.68,12.06,20.09,8.73,1.66-1.26-.09-3.77-2.7-6.28,4.29,3,8.9,5.47,10.81,4.15,1.09-.76,1.19-1.86.66-3.14a3.12,3.12,0,0,0,3.44-.38c1.51-1.43.91-3.69-.56-6a1.73,1.73,0,0,0,1.35-.79c3.26-4.5-11.36-18.53-16.57-20-15.33-4.4-31.89-3.82-31.89-3.82C190,336.48,186.48,362,186.49,362Z" style="fill: rgb(255, 196, 192);"></path><path d="M210,348.62a25.27,25.27,0,0,1,10.16,4.45c3.5,2.66,6.22,6.18,9.43,9.15.09.08,0,.21-.13.13-1.5-1.53-3.17-2.91-4.74-4.37s-3-2.92-4.64-4.24a25.05,25.05,0,0,0-10.09-5.06S209.91,348.61,210,348.62Z" style="fill:#263238"></path><path d="M213.15,342.17A62,62,0,0,1,225,346.9c4,2.3,7.12,5.88,10.15,9.34,1.82,2.08,3.6,4.19,5.33,6.35.07.09-.06.22-.13.13q-4.62-5.36-9.54-10.42a33.16,33.16,0,0,0-10.65-7.43c-2.29-1-4.65-1.81-7-2.63C213.08,342.23,213.1,342.16,213.15,342.17Z" style="fill:#263238"></path><path d="M217.77,336.62c3.92,1,7.34,1.85,10.74,4.14,4.51,3,8.77,8,10.27,9.71,1.65,1.93,3.23,3.92,4.79,5.93.06.08-.08.19-.15.11A132.46,132.46,0,0,0,231.9,344a26.26,26.26,0,0,0-6.55-4.7,46.07,46.07,0,0,0-7.59-2.64S217.75,336.62,217.77,336.62Z" style="fill:#263238"></path><path d="M74.07,375.89c2.37.77,70-18.8,70-18.8l-8-23.47s4-7.55,2.11-14.81c-2.44-9.7-20.4-25.65-21.81-26.59-5.66-3.75-11-3.69-15.67-1.2C81.15,301.41,74.07,375.89,74.07,375.89Z" style="fill:#8089FF"></path><path d="M109.25,294.1a1.85,1.85,0,1,1-1.85-1.85A1.85,1.85,0,0,1,109.25,294.1ZM86.92,324.58a1.85,1.85,0,1,0,1.85,1.85A1.85,1.85,0,0,0,86.92,324.58Zm20.48,0a1.85,1.85,0,1,0,1.85,1.85A1.85,1.85,0,0,0,107.4,324.58Zm20.48,0a1.85,1.85,0,1,0,1.85,1.85A1.85,1.85,0,0,0,127.88,324.58Zm-30.72-16A1.85,1.85,0,1,0,99,310.41,1.85,1.85,0,0,0,97.16,308.56Zm20.48,0a1.85,1.85,0,1,0,1.85,1.85A1.85,1.85,0,0,0,117.64,308.56ZM86.92,356.91a1.85,1.85,0,1,0,1.85,1.85A1.85,1.85,0,0,0,86.92,356.91Zm20.48,0a1.85,1.85,0,1,0,1.85,1.85A1.85,1.85,0,0,0,107.4,356.91Zm20.48,0a1.85,1.85,0,1,0,1.85,1.85A1.85,1.85,0,0,0,127.88,356.91Zm-30.72-16A1.85,1.85,0,1,0,99,342.74,1.85,1.85,0,0,0,97.16,340.89Zm20.48,0a1.85,1.85,0,1,0,1.85,1.85A1.85,1.85,0,0,0,117.64,340.89Zm20.93.06a1.63,1.63,0,0,0-.45-.06,1.85,1.85,0,0,0,0,3.7,1.8,1.8,0,0,0,1.44-.7ZM76.68,373.22a1.85,1.85,0,0,0-1.85,1.85,1.65,1.65,0,0,0,.18.77c.77-.11,2-.36,3.51-.71a.13.13,0,0,0,0-.06A1.85,1.85,0,0,0,76.68,373.22Z" style="fill:#fff"></path><path d="M114.38,331.93a60.74,60.74,0,0,1,8.81-1c1.47,0,2.93,0,4.4.07.73,0,1.46,0,2.19.05a9.81,9.81,0,0,0,2.29-.2c.06,0,.09.08,0,.1a16.61,16.61,0,0,1-2.1.55,16.22,16.22,0,0,1-2.09.18c-1.49.05-3,0-4.48.06-3,.06-6,.13-9,.41C114.27,332.18,114.24,332,114.38,331.93Z" style="fill:#263238"></path><path d="M108.08,336.4a64.82,64.82,0,0,1,6.94-2.3c1.18-.32,2.37-.56,3.57-.78l1.72-.28c.64-.09,1.29-.1,1.92-.2a.05.05,0,0,1,0,.1c-.59.11-1.17.33-1.75.48l-1.77.44c-1.18.3-2.36.61-3.54.9-2.37.58-4.72,1.18-7.06,1.84A.1.1,0,0,1,108.08,336.4Z" style="fill:#263238"></path><path d="M104.94,289.81c0,1.25,4.15,10.2,9.68,11.06,1.8.28,3.76-9.48,3.76-9.48l.31-.69,4.32-9.62-11.79-11.39S104.93,289.27,104.94,289.81Z" style="fill: rgb(255, 196, 192);"></path><path d="M123,281.08l-4.32,9.62a21.18,21.18,0,0,1-9.61-14.31c1.08-3.4,2-6.22,2.11-6.64a.12.12,0,0,0,0-.06l1.51,1.36Z" style="fill:#263238"></path><path d="M139.32,267.65c-1.63,18.44-12.87,19.54-16.84,19.19-3.61-.33-15.86-1.88-16.15-20.4s8.81-23.58,17.11-23.28S141,249.2,139.32,267.65Z" style="fill: rgb(255, 196, 192);"></path><path d="M136.8,264.4a12.2,12.2,0,0,1-1.19-.46,2,2,0,0,1-1.13-.7.65.65,0,0,1,.12-.79,1.64,1.64,0,0,1,1.66-.12,2.43,2.43,0,0,1,1.35,1.07A.7.7,0,0,1,136.8,264.4Z" style="fill:#263238"></path><path d="M124.16,264c.44,0,.85,0,1.28-.06a2.08,2.08,0,0,0,1.29-.32.65.65,0,0,0,.13-.79,1.64,1.64,0,0,0-1.53-.63,2.41,2.41,0,0,0-1.62.6A.7.7,0,0,0,124.16,264Z" style="fill:#263238"></path><path d="M126.35,267.69c0-.05-.1,0-.11.09-.13,1.26-.49,2.67-1.67,2.94,0,0,0,.07,0,.07C126,270.78,126.43,268.9,126.35,267.69Z" style="fill:#263238"></path><path d="M125.41,266.23c-2-.42-2.69,3.58-.85,4S127.08,266.59,125.41,266.23Z" style="fill:#263238"></path><path d="M124.59,266.3c-.39.17-.8.51-1.23.48s-.79-.52-1-1c0-.05-.07,0-.08,0-.15.77,0,1.61.82,1.86s1.39-.34,1.71-1.08C124.83,266.47,124.75,266.24,124.59,266.3Z" style="fill:#263238"></path><path d="M133.58,268s.09.08.08.13c-.27,1.23-.37,2.69.68,3.31,0,0,0,.08,0,.06C133,271,133.13,269.09,133.58,268Z" style="fill:#263238"></path><path d="M134.93,266.87c2,.22,1.44,4.24-.43,4.05S133.23,266.69,134.93,266.87Z" style="fill:#263238"></path><path d="M135.73,267.26c.29.26.55.69.92.77s.83-.3,1.17-.68c0,0,.06,0,.06.06-.09.77-.46,1.54-1.22,1.58s-1.1-.7-1.17-1.49C135.47,267.35,135.61,267.15,135.73,267.26Z" style="fill:#263238"></path><path d="M124.23,278.08c.22.36.41.82.84,1a3.3,3.3,0,0,0,1.4,0,0,0,0,0,1,0,.07,1.7,1.7,0,0,1-1.72.28,1.35,1.35,0,0,1-.68-1.33C124.1,278,124.2,278,124.23,278.08Z" style="fill:#263238"></path><path d="M130.43,274.23s-.1,1.9-.26,2.77c0,.08-.24.08-.54,0h0a4.2,4.2,0,0,1-3.73-2.32.09.09,0,0,1,.15-.1,6.39,6.39,0,0,0,3.58,1.82c.11-.23.06-3.26.2-3.24a7.53,7.53,0,0,1,1.9.83c.32-3.95,0-7.92.39-11.85a.12.12,0,0,1,.24,0,64.16,64.16,0,0,1,.12,12.77C132.42,275.44,130.75,274.44,130.43,274.23Z" style="fill:#263238"></path><path d="M129.66,276.68a5.14,5.14,0,0,1-2.21,1.41,2.38,2.38,0,0,1-1.42,0c-1-.37-.93-1.3-.67-2.08a5.22,5.22,0,0,1,.57-1.18A6.74,6.74,0,0,0,129.66,276.68Z" style="fill:#263238"></path><path d="M127.45,278.09a2.38,2.38,0,0,1-1.42,0c-1-.37-.93-1.3-.67-2.08A2.41,2.41,0,0,1,127.45,278.09Z" style="fill:#ff9cbd"></path><path d="M107.1,268.14c2,0,7.74-5.14,8.64-14.91,0,0-1.42,8.71-2.18,10s3.19-2.91,4-10.78a31.79,31.79,0,0,0,7.78,4.81c3.64,1.33,5.92,1.47,6.21,1.22s-5.06-2.39-6.42-4.22c0,0,9.56,5.36,14.11,6.06.52.08,1.77-9.69-5-14.84s-18.06-2.07-21.29.61c0,0-3.57.23-7.81,5.17S104.91,268.1,107.1,268.14Z" style="fill:#263238"></path><path d="M121.87,274.2A6,6,0,1,1,129,268h0a6,6,0,0,1-5.67,6.33A5.67,5.67,0,0,1,121.87,274.2Zm2.16-11a5,5,0,0,0-1.29-.09,5.21,5.21,0,1,0,1.29.09Z" style="fill:#8089FF"></path><path d="M135.63,275.19c-2.26-.44-3.85-3.15-3.61-6.28a7.21,7.21,0,0,1,1.59-4.1,3.76,3.76,0,0,1,6.4.5,7.2,7.2,0,0,1,.94,4.29c-.26,3.3-2.47,5.84-4.93,5.65A2.63,2.63,0,0,1,135.63,275.19Zm1.56-11.09-.3,0a3.22,3.22,0,0,0-2.67,1.27,6.45,6.45,0,0,0-1.4,3.64c-.22,2.86,1.24,5.32,3.26,5.48s3.85-2.05,4.07-4.91a6.39,6.39,0,0,0-.83-3.81A3.29,3.29,0,0,0,137.19,264.1Z" style="fill:#8089FF"></path><path d="M128.78,268.65l-.47-.66c1-.69,3.15-1.55,4.49.13l-.63.5C131,267.11,128.86,268.58,128.78,268.65Z" style="fill:#8089FF"></path><path d="M101.94,268.12l-.68-.42c.2-.32,2-3.12,3.79-3.27s12.36,1.7,12.81,1.78l-.13.79c-3.06-.53-11.3-1.88-12.61-1.77S102.42,267.35,101.94,268.12Z" style="fill:#8089FF"></path><path d="M109.14,268.12s-3-6.4-5.81-5.43-1.29,9.74,1.54,11.4a3.12,3.12,0,0,0,4.42-.93Z" style="fill: rgb(255, 196, 192);"></path><path d="M103.84,265.19a0,0,0,0,0,0,.08c2,1.24,2.74,3.41,3.16,5.59a1.73,1.73,0,0,0-2.46-.92c-.06,0,0,.13,0,.13a1.92,1.92,0,0,1,2,1,9.25,9.25,0,0,1,.7,1.86c.06.21.42.17.39-.06,0,0,0,0,0-.06C108.13,270.14,106.7,266,103.84,265.19Z" style="fill:#263238"></path><path d="M90.6,303.42C76.44,331.35,74.76,355,78.94,359.24c11.25,11.47,48.19,6.36,58.23,6.17,4.06-.08-4.19-33.45-8.49-32.85-10.14,1.4-24.7,4.59-25.19,4.39-1-.41.15-8.29,1.66-31.81C106.37,286.11,96.39,292,90.6,303.42Z" style="fill: rgb(255, 196, 192);"></path><path d="M142.23,328.46c10.08-1.41,12.88-.22,20.75-5.92,5.17-3.74,9.78-2.05,6.83,3.9C165,336.16,152.37,340.7,147.54,341Z" style="fill: rgb(255, 196, 192);"></path><path d="M115.47,338.16s11.32-6.29,21.91-8.85c7.32-1.77,22.74-2.87,39.33,12.3,4.39,4,5.27,12.07-2.57,7.61-5.72-3.26-8.28-6.23-12-7.28,0,0,2.06,10.68-1.92,14.25a99.15,99.15,0,0,1-11.07,8.59,22.13,22.13,0,0,1-1.79-1.93s-4,3-11.63,2.26Z" style="fill: rgb(255, 196, 192);"></path><path d="M144.64,328.74c3.5,1.83,10.85,5.82,15.73,11.18,5.42,5.95,14.26,18.88,9.83,22.84-3.26,2.9-7.06-1.74-7.06-1.74s2.52,6.11-1,8.09c-3.2,1.8-5.93-2-5.93-2s.9,4-2.52,5.11c-4.11,1.38-5.31-7.17-10.68-9.38C141.82,362.39,144.64,328.74,144.64,328.74Z" style="fill: rgb(255, 196, 192);"></path><path d="M153.13,344.6c3,2.25,8.53,9.13,10.06,16.26,0,.16-.07.27-.13.13a79,79,0,0,0-10-16.34S153.09,344.57,153.13,344.6Z" style="fill:#263238"></path><path d="M147.28,350.24c2.4,2.22,7.77,9.56,9.07,16.84,0,.16-.08.27-.14.12a84.91,84.91,0,0,0-9-16.91S147.25,350.22,147.28,350.24Z" style="fill:#263238"></path><path d="M126.77,332.83a67.56,67.56,0,0,1,14.07-4.39,66.86,66.86,0,0,1,7.32-1.06c1.24-.1,2.48-.13,3.66-.29a21.46,21.46,0,0,0,3.52-.84,23.79,23.79,0,0,0,6.45-3.28,12.54,12.54,0,0,1,3.26-1.88,7.39,7.39,0,0,1,3.8-.55,2.71,2.71,0,0,1,1.79,1,3.11,3.11,0,0,1,.51,2,9.43,9.43,0,0,1-1.05,3.67,18.2,18.2,0,0,1-4.81,5.73l0-.59a99.66,99.66,0,0,1,8.91,6.52,33.11,33.11,0,0,1,4,3.86,12.52,12.52,0,0,1,1.54,2.35,7,7,0,0,1,.81,2.75,3.39,3.39,0,0,1-.27,1.49,2.28,2.28,0,0,1-1.09,1.1,4.08,4.08,0,0,1-2.9,0,24.51,24.51,0,0,1-4.9-2.63c-1.54-1-3-2.07-4.56-3.09-.75-.51-1.52-1-2.3-1.48a9.76,9.76,0,0,0-2.44-1.12l.19-.31a65.91,65.91,0,0,1,5.41,7.78,39.86,39.86,0,0,1,2.17,4.21,22.29,22.29,0,0,1,1.45,4.5,21.79,21.79,0,0,0-1.54-4.46,37,37,0,0,0-2.25-4.15,66,66,0,0,0-5.53-7.64l-.38-.45.57.15a10.29,10.29,0,0,1,2.55,1.14c.8.47,1.58,1,2.35,1.46,1.53,1,3,2.05,4.58,3a23.71,23.71,0,0,0,4.8,2.52,3.5,3.5,0,0,0,2.47,0,2,2,0,0,0,1-2,9,9,0,0,0-2.22-4.72,32.47,32.47,0,0,0-3.93-3.75,94.88,94.88,0,0,0-8.87-6.43l-.41-.27.39-.32a17.67,17.67,0,0,0,4.58-5.49,9.05,9.05,0,0,0,1-3.36A2.5,2.5,0,0,0,170,322a2,2,0,0,0-1.32-.76,6.9,6.9,0,0,0-3.41.51,11.89,11.89,0,0,0-3.11,1.77,24.06,24.06,0,0,1-6.65,3.36,22.66,22.66,0,0,1-3.64.86c-1.26.16-2.48.18-3.7.27-2.43.19-4.87.47-7.28.9A75.84,75.84,0,0,0,126.77,332.83Z" style="fill:#263238"></path><path d="M77.79,327.56,105,322.88s1-13.83.44-21.56C104.7,291.1,100.74,289,93.14,299,88.06,305.68,77.79,327.56,77.79,327.56Z" style="fill:#8089FF"></path><path d="M88.61,325.7l-3.53.6a1.84,1.84,0,0,1,3.53-.6Zm8.55-17.14A1.85,1.85,0,1,0,99,310.41,1.85,1.85,0,0,0,97.16,308.56Z" style="fill:#fff"></path><path d="M80.11,324.51c3.91-.95,7.82-1.85,11.78-2.58q3-.54,5.93-1c2-.3,4-.4,6-.73.1,0,.13.16,0,.17-2,.23-4,.72-5.94,1.06s-3.95.67-5.93,1c-3.94.71-7.89,1.41-11.82,2.21C80,324.7,80,324.54,80.11,324.51Z" style="fill:#263238"></path><path d="M101.66,323.46a32.67,32.67,0,0,1,3.27-.66c.07-1.63.12-3.26.22-4.89,0-.81.1-1.63.17-2.44s.13-1.92.2-2.71a.09.09,0,1,1,.17,0c0,1,0,1.82,0,2.72s0,1.6-.05,2.4c-.06,1.7-.06,3.51-.22,5.2a28.52,28.52,0,0,1-3.74.48S101.61,323.47,101.66,323.46Z" style="fill:#263238"></path><path d="M106.52,314.23a8.86,8.86,0,0,1-.86,2.82,8,8,0,0,1,.31-1.45A8.91,8.91,0,0,1,106.52,314.23Z" style="fill:#263238"></path><rect x="138.09" y="370.56" width="71.74" height="3.22" style="fill:#c7c7c7"></rect><polygon points="168.97 370.56 166.52 373.77 225.36 373.77 225.36 370.56 168.97 370.56" style="fill:#a6a6a6"></polygon><polygon points="172.07 373.77 241.98 373.77 256.18 326.29 186.26 326.29 172.07 373.77" style="fill:#a6a6a6"></polygon><polygon points="174.49 373.77 244.4 373.77 258.59 326.29 188.68 326.29 174.49 373.77" style="fill:#c7c7c7"></polygon><path d="M213.63,350a3.4,3.4,0,0,0,3.43,4.25,5.41,5.41,0,0,0,5.08-4.25,3.41,3.41,0,0,0-3.43-4.26A5.42,5.42,0,0,0,213.63,350Z" style="fill:#fff"></path></g><g id="freepik--speech-bubble--inject-16"><polygon points="196.23 265.7 196.23 309.07 202.32 309.07 202.32 319.6 212.84 309.07 270.58 309.07 270.58 265.7 196.23 265.7" style="fill:#fff"></polygon><path d="M196.23,265.7l.16,21.75q.11,10.85.12,21.62l-.28-.28h6.38v.29l0,10.52-.55-.22,10.49-10.55.11-.11h.15l28.87-.08c9.62,0,19.25-.09,28.87,0l-.48.48.12-43.37.36.36-37.07-.12Zm0,0,37.07-.25,37.28-.12h.36v.37l.11,43.37v.48h-.48c-9.62.05-19.25,0-28.87,0l-28.87-.07.26-.11-10.55,10.49-.56.56v-.79l0-10.52.3.3-6.09,0H196v-.28q0-10.89.12-21.75Z" style="fill:#263238"></path><path d="M223.42,294.33a1.79,1.79,0,0,1-1.24,3.06,1.87,1.87,0,0,1-1.3-.51l-8-8.07c-.08,0-.11-.08-.14-.17a.28.28,0,0,0-.08-.05.84.84,0,0,1-.09-.23.15.15,0,0,1-.08-.11c0-.06,0-.15-.06-.17s-.06-.12-.06-.14v-.2c0-.06,0-.09,0-.17s0-.12,0-.14v-.2c0-.06.06-.09.06-.12s0-.14.06-.22,0,0,0-.06.09-.2.15-.25,0-.06.05-.06a.6.6,0,0,1,.17-.2l8-8.06a1.84,1.84,0,0,1,2.54,0,1.78,1.78,0,0,1,0,2.54l-6.7,6.77Z" style="fill:#8089FF"></path><path d="M230.63,295.24l6.93-16.5a1.58,1.58,0,0,1,2.07-.82,1.53,1.53,0,0,1,.79,2l-6.93,16.52a1.57,1.57,0,0,1-1.45.94,1.4,1.4,0,0,1-.56-.11A1.54,1.54,0,0,1,230.63,295.24Z" style="fill:#8089FF"></path><path d="M254.12,288.59s0,0,0,0a1.26,1.26,0,0,1-.2.2l-8,8.07a1.8,1.8,0,1,1-2.54-2.55l6.7-6.76-6.7-6.77a1.78,1.78,0,0,1,0-2.54,1.84,1.84,0,0,1,2.54,0l8,8.06a1.89,1.89,0,0,1,.2.2s0,.06,0,.06.11.17.14.25,0,0,0,.06a1.29,1.29,0,0,0,.09.25s0,0,0,.09v.2s0,.11,0,.14,0,.11,0,.14v.23s0,0,0,.05a2.06,2.06,0,0,0-.09.26s0,0,0,.08A2.62,2.62,0,0,0,254.12,288.59Z" style="fill:#8089FF"></path></g><g id="freepik--Plant--inject-16"><path d="M697.63,350.21c-13.26,18-27.09,38.81-30.46,61.34,0,.34.51.45.58.11a133.79,133.79,0,0,1,5.87-18c8.72-2.4,17.28-4.37,21.86-13,4.67-8.9,4.08-20.5,3.19-30.19C698.6,349.89,697.9,349.86,697.63,350.21Z" style="fill:#8089FF"></path><path d="M673.75,393.45c6-13.37,13.61-26.79,23.33-37.79.07-.07.17,0,.11.11-6.37,7.83-11.2,16.36-15.93,25,4.39-4.46,9.21-8.46,13.37-13.18.08-.1.21,0,.13.13-4.13,5-8.64,10.34-14,14-1.45,2.66-2.9,5.33-4.38,8,.36-.2.74-.38,1.11-.56a.06.06,0,0,1,0,.1c-.41.21-.81.42-1.24.6-.69,1.27-1.39,2.53-2.1,3.79C674,394,673.63,393.74,673.75,393.45Z" style="fill:#263238"></path><path d="M678.18,388.79a78.2,78.2,0,0,0,10.19-6.8c.08-.07.21.05.12.13A53.59,53.59,0,0,1,678.33,389C678.17,389.12,678,388.88,678.18,388.79Z" style="fill:#263238"></path><path d="M665.64,408.2c0,.27.49.27.48,0,.07-7.42,0-14.88.12-22.33,1.9-3.83,6-6,8.81-9a39.51,39.51,0,0,0,5.3-7.37A53,53,0,0,0,686.48,349c.79-7.94-2.22-34.12-5.57-33.21-1.73.47-7.35,13.44-8.84,17.73a123.75,123.75,0,0,0-5.28,21.74C664.08,372.7,664.31,390.63,665.64,408.2Z" style="fill:#8089FF"></path><path d="M665.58,376.2l0,0c.4-9.39,2.52-18.87,4.5-28,2.13-9.81,4.62-19.05,9.67-27.79.09-.17.33,0,.25.14a103.11,103.11,0,0,0-7.77,21.33c.34-.52.75-1,1.1-1.53.14-.19.46,0,.33.2a14.62,14.62,0,0,1-1.58,2.22.09.09,0,0,1-.07,0c-1.73,7-3,14.18-4,21.34l.24-.28c0-.06.15,0,.11.08-.13.24-.28.48-.43.71-.54,3.63-1,7.26-1.53,10.85,6.46-5.53,12-12,15.09-20.06,0,0,.08,0,.06,0-3,8.33-7.85,15.73-15.26,20.78-.13,1-.27,1.93-.41,2.89,0,.2-.34.15-.34,0,0-.86,0-1.72.08-2.57A.19.19,0,0,1,665.58,376.2Z" style="fill:#263238"></path><path d="M668.63,362.6c4.94-7.38,9.55-14.54,13.17-22.69,0-.09.19,0,.16.07-3.05,8.1-7.31,16.3-13.09,22.81C668.76,362.92,668.53,362.74,668.63,362.6Z" style="fill:#263238"></path><path d="M675.19,338.09c2-3.62,4.21-7.14,6.13-10.83a.09.09,0,1,1,.15.08,56,56,0,0,1-6,10.94C675.37,338.46,675.07,338.3,675.19,338.09Z" style="fill:#263238"></path><path d="M674.39,339.67a0,0,0,0,1,0,.06A0,0,0,1,1,674.39,339.67Z" style="fill:#263238"></path><path d="M660.61,386.74a74.68,74.68,0,0,1-1.73,14.62c.08.53.15,1.06.23,1.6a69.39,69.39,0,0,0,2.61-16.29.51.51,0,0,0,0-.51h0a108.22,108.22,0,0,0-1.64-22.07c-2.3-13.64-7.32-26.72-16.83-36.94a.68.68,0,0,0-1,.22c-3.83,9.75-2.49,21.39.77,31.13a57.14,57.14,0,0,0,7.54,14.78C653.81,377.86,658,381.74,660.61,386.74Z" style="fill:#8089FF"></path><path d="M644.41,331.7c9,14.63,15.28,32,16.05,49.24,0,.31-.5.39-.55.08-.21-1.55-.45-3.09-.7-4.62h0c-3.73-3.57-7.56-7.34-10.23-11.8,0-.08.07-.17.13-.1A124,124,0,0,0,659,375.3q-1-5.73-2.31-11.28l-.72-.84c-.15-.18.11-.45.27-.27l.22.24a133,133,0,0,0-4.71-15c-2.3-2.73-4.86-5.1-6.53-8.39a.07.07,0,0,1,.12-.07c1.34,1.88,2.64,3.78,4.17,5.53.6.69,1.27,1.35,1.9,2a115.1,115.1,0,0,0-7.38-15.38A.2.2,0,0,1,644.41,331.7Z" style="fill:#263238"></path><path d="M646.23,349.75c2.91,3.92,6.23,7.66,8.94,11.71.08.11-.09.23-.19.14-3.48-3.26-6.42-7.72-9-11.74A.11.11,0,0,1,646.23,349.75Z" style="fill:#263238"></path><path d="M655.58,362.36l.12.13c.09.08-.05.22-.13.13l-.13-.12A.1.1,0,0,1,655.58,362.36Z" style="fill:#263238"></path><path d="M630.29,359.82c.72,7.52,4.68,16.51,9.51,22.31a23.84,23.84,0,0,0,7.71,6c3.34,1.65,6.84,3.55,10.29,4.91A67.69,67.69,0,0,1,661.45,406l.33-1.15c-2.22-19.05-14.55-35.33-30.31-45.78A.77.77,0,0,0,630.29,359.82Z" style="fill:#8089FF"></path><path d="M635.74,365.45c-.11-.1,0-.3.16-.21A64.54,64.54,0,0,1,656,390c.12.26-.24.49-.39.23q-1.1-1.92-2.24-3.76h0c-3.6-.68-7-3.21-9.68-5.61a.08.08,0,0,1,.11-.11,22.21,22.21,0,0,0,4.55,3.2c1.47.74,3,1.21,4.57,1.81-1.33-2.12-2.72-4.15-4.17-6.12a42,42,0,0,1-10.82-6.08c-.1-.07,0-.24.1-.17a106.88,106.88,0,0,0,10.06,5.37,90.91,90.91,0,0,0-7.1-8.27c-1.22-.65-2.47-1.3-3.65-2a.1.1,0,0,1,.08-.18,13.42,13.42,0,0,1,2.8,1.37C638.77,368.25,637.31,366.83,635.74,365.45Z" style="fill:#263238"></path><path d="M636.07,372a4.51,4.51,0,0,1,.61.44c.06.05,0,.12-.08.1a4.89,4.89,0,0,1-.63-.36C635.86,372.13,636,372,636.07,372Z" style="fill:#263238"></path><polygon points="686.39 447.25 643.18 447.25 646.67 407.91 647.43 399.23 682.13 399.23 682.9 407.91 686.39 447.25" style="fill:#455a64"></polygon><polygon points="682.9 407.91 646.67 407.91 647.43 399.23 682.13 399.23 682.9 407.91" style="fill:#263238"></polygon><rect x="645.37" y="393.16" width="38.83" height="8.59" style="fill:#455a64"></rect></g></svg>